<svg version="1.2" xmlns="http://www.w3.org/2000/svg" viewBox="0 0 977 300" width="977" height="300"><style>.a{fill:#fff}</style><path class="a" d="m224 158v90h20 20v-90-90h-20-20z"/><path class="a" d="m666.5 81.2c-10.8 1-16.2 2.5-26 7.3-16.4 8-27.9 19.5-36.1 36-7.1 14.5-8.7 22.1-8.7 41.5 0 13.7 0.3 17.8 2.1 24.2 8 29.2 28.8 50.7 55.9 57.9 10.3 2.8 29.7 2.9 39.8 0.4 15.4-3.8 30.1-12.8 40.2-24.6 5.2-6.2 11.9-17.6 10.9-18.6-0.5-0.5-19.1-8.4-25-10.5-2.5-1-3.2-0.9-4 0.7-9.7 16.4-22.9 24.5-40.3 24.5-22.4 0-38.4-14.2-43.9-38.9-2.2-10-1.5-29.1 1.5-37.4 5.4-15.2 13-24.4 24.7-29.9 9.1-4.3 21-5 30.3-1.8 11 3.7 18.1 9.8 24.3 20.6 1.7 3 3.6 5.3 4.2 5 0.6-0.3 7.2-3 14.6-6.2 7.4-3.1 13.7-5.8 14-6.1 0.8-0.7-5.8-12.6-9.7-17.3-16.4-19.9-41-29.5-68.8-26.8z"/><path class="a" d="m315.8 82.6c-0.5 0.4-0.8 37.8-0.8 83.1v82.3h17 17.1l-0.3-29.5-0.3-29.5h11.7 11.7l11 18.2c6 10.1 14 23.4 17.6 29.5l6.7 11.3h18.4c10.1 0 18.4-0.3 18.4-0.6 0-0.4-8.5-14.3-19-31-10.4-16.6-19.2-30.8-19.5-31.6-0.3-0.8 1.9-2.4 6.4-4.5 15.4-7.3 25.4-22.2 26.8-40.2 1.7-22.7-8.4-40.9-28-50.4-13.1-6.4-17.9-7-58.2-7.5-19.8-0.2-36.3 0-36.7 0.4zm74.7 31.7c9 4 13.9 11.7 14 21.7 0 8.7-3.2 15.2-9.8 19.7-6.4 4.3-12.2 5.3-30.5 5.3h-15.7v-24.6-24.6l19 0.4c15.4 0.3 19.8 0.7 23 2.1z"/><path class="a" d="m469.6 82.7c-0.3 0.4-0.6 37.7-0.6 83v82.3h52.3c28.8 0 52.6-0.2 52.8-0.4 0.2-0.2 0.3-7.2 0.1-15.5l-0.3-15.1h-35.5-35.4v-19.5-19.5h31 31v-14.5-14.5h-31-31v-18-18h35 35v-15.5-15.5l-51.4 0.1c-28.2 0-51.6 0.3-52 0.6z"/><path class="a" d="m812.2 83.3c-0.9 1.1-17.4 44.8-47.7 126.2-6.8 18.1-12.8 34.2-13.4 35.7l-1.1 2.8h17.3 17.2l6.4-17.3c3.5-9.4 6.7-17.6 7.1-18 0.4-0.4 14.9-0.9 32.3-1l31.6-0.2 6.4 18 6.5 18 18.2 0.3c17.1 0.2 18.2 0.1 17.5-1.5-1.7-4.4-33.1-87.4-45.5-120.3-7.5-20.1-14.4-38.1-15.2-40.1l-1.6-3.6-17.5-0.1c-12.9-0.1-17.7 0.1-18.5 1.1zm29.1 68.7c5.4 15.1 10.1 28.3 10.4 29.2 0.5 1.7-1 1.8-21.7 1.8-20.7 0-22.2-0.1-21.7-1.8 0.4-1.3 18.9-51.8 21.4-58.2 0.5-1.3 0.6-1.3 1.1 0 0.3 0.8 5 13.9 10.5 29z"/><path class="a" d="m164 180.5v67.5h20 20v-67.5-67.5h-20-20z"/><path class="a" d="m104 203.5v44.5h20.5 20.5v-44.5-44.5h-20.5-20.5z"/><path class="a" d="m44 225.5v22.5h20 20v-22.5-22.5h-20-20z"/></svg>